<?xml version="1.0" encoding="utf-8"?>
<svg xmlns="http://www.w3.org/2000/svg" xmlns:xlink="http://www.w3.org/1999/xlink" width="600" height="400" viewBox="0 0 2400 1600">
<defs>
  <clipPath id="clip0300">
    <rect x="0" y="0" width="2000" height="2000"/>
  </clipPath>
</defs>
<defs>
  <clipPath id="clip0301">
    <rect x="0" y="0" width="2400" height="1600"/>
  </clipPath>
</defs>
<polygon clip-path="url(#clip0301)" points="
0,1600 2400,1600 2400,0 0,0 
  " fill="#ffffff" fill-rule="evenodd" fill-opacity="1"/>
<defs>
  <clipPath id="clip0302">
    <rect x="480" y="0" width="1681" height="1600"/>
  </clipPath>
</defs>
<polygon clip-path="url(#clip0301)" points="
161.394,1503.47 2321.26,1503.47 2321.26,125.984 161.394,125.984 
  " fill="#ffffff" fill-rule="evenodd" fill-opacity="1"/>
<defs>
  <clipPath id="clip0303">
    <rect x="161" y="125" width="2161" height="1378"/>
  </clipPath>
</defs>
<polyline clip-path="url(#clip0303)" style="stroke:#000000; stroke-width:2; stroke-opacity:0.1; fill:none" points="
  448.923,1503.47 448.923,125.984 
  "/>
<polyline clip-path="url(#clip0303)" style="stroke:#000000; stroke-width:2; stroke-opacity:0.1; fill:none" points="
  901.725,1503.47 901.725,125.984 
  "/>
<polyline clip-path="url(#clip0303)" style="stroke:#000000; stroke-width:2; stroke-opacity:0.1; fill:none" points="
  1354.53,1503.47 1354.53,125.984 
  "/>
<polyline clip-path="url(#clip0303)" style="stroke:#000000; stroke-width:2; stroke-opacity:0.1; fill:none" points="
  1807.33,1503.47 1807.33,125.984 
  "/>
<polyline clip-path="url(#clip0303)" style="stroke:#000000; stroke-width:2; stroke-opacity:0.1; fill:none" points="
  2260.13,1503.47 2260.13,125.984 
  "/>
<polyline clip-path="url(#clip0303)" style="stroke:#000000; stroke-width:2; stroke-opacity:0.1; fill:none" points="
  161.394,1244.04 2321.26,1244.04 
  "/>
<polyline clip-path="url(#clip0303)" style="stroke:#000000; stroke-width:2; stroke-opacity:0.1; fill:none" points="
  161.394,967.626 2321.26,967.626 
  "/>
<polyline clip-path="url(#clip0303)" style="stroke:#000000; stroke-width:2; stroke-opacity:0.1; fill:none" points="
  161.394,691.212 2321.26,691.212 
  "/>
<polyline clip-path="url(#clip0303)" style="stroke:#000000; stroke-width:2; stroke-opacity:0.1; fill:none" points="
  161.394,414.798 2321.26,414.798 
  "/>
<polyline clip-path="url(#clip0303)" style="stroke:#000000; stroke-width:2; stroke-opacity:0.1; fill:none" points="
  161.394,138.384 2321.26,138.384 
  "/>
<polyline clip-path="url(#clip0301)" style="stroke:#000000; stroke-width:4; stroke-opacity:1; fill:none" points="
  161.394,1503.47 2321.26,1503.47 
  "/>
<polyline clip-path="url(#clip0301)" style="stroke:#000000; stroke-width:4; stroke-opacity:1; fill:none" points="
  161.394,1503.47 161.394,125.984 
  "/>
<polyline clip-path="url(#clip0301)" style="stroke:#000000; stroke-width:4; stroke-opacity:1; fill:none" points="
  448.923,1503.47 448.923,1482.81 
  "/>
<polyline clip-path="url(#clip0301)" style="stroke:#000000; stroke-width:4; stroke-opacity:1; fill:none" points="
  901.725,1503.47 901.725,1482.81 
  "/>
<polyline clip-path="url(#clip0301)" style="stroke:#000000; stroke-width:4; stroke-opacity:1; fill:none" points="
  1354.53,1503.47 1354.53,1482.81 
  "/>
<polyline clip-path="url(#clip0301)" style="stroke:#000000; stroke-width:4; stroke-opacity:1; fill:none" points="
  1807.33,1503.47 1807.33,1482.81 
  "/>
<polyline clip-path="url(#clip0301)" style="stroke:#000000; stroke-width:4; stroke-opacity:1; fill:none" points="
  2260.13,1503.47 2260.13,1482.81 
  "/>
<polyline clip-path="url(#clip0301)" style="stroke:#000000; stroke-width:4; stroke-opacity:1; fill:none" points="
  161.394,1244.04 193.792,1244.04 
  "/>
<polyline clip-path="url(#clip0301)" style="stroke:#000000; stroke-width:4; stroke-opacity:1; fill:none" points="
  161.394,967.626 193.792,967.626 
  "/>
<polyline clip-path="url(#clip0301)" style="stroke:#000000; stroke-width:4; stroke-opacity:1; fill:none" points="
  161.394,691.212 193.792,691.212 
  "/>
<polyline clip-path="url(#clip0301)" style="stroke:#000000; stroke-width:4; stroke-opacity:1; fill:none" points="
  161.394,414.798 193.792,414.798 
  "/>
<polyline clip-path="url(#clip0301)" style="stroke:#000000; stroke-width:4; stroke-opacity:1; fill:none" points="
  161.394,138.384 193.792,138.384 
  "/>
<g clip-path="url(#clip0301)">
<text style="fill:#000000; fill-opacity:1; font-family:Arial,Helvetica Neue,Helvetica,sans-serif; font-size:48px; text-anchor:middle;" transform="rotate(0, 448.923, 1557.47)" x="448.923" y="1557.47">2</text>
</g>
<g clip-path="url(#clip0301)">
<text style="fill:#000000; fill-opacity:1; font-family:Arial,Helvetica Neue,Helvetica,sans-serif; font-size:48px; text-anchor:middle;" transform="rotate(0, 901.725, 1557.47)" x="901.725" y="1557.47">4</text>
</g>
<g clip-path="url(#clip0301)">
<text style="fill:#000000; fill-opacity:1; font-family:Arial,Helvetica Neue,Helvetica,sans-serif; font-size:48px; text-anchor:middle;" transform="rotate(0, 1354.53, 1557.47)" x="1354.53" y="1557.47">6</text>
</g>
<g clip-path="url(#clip0301)">
<text style="fill:#000000; fill-opacity:1; font-family:Arial,Helvetica Neue,Helvetica,sans-serif; font-size:48px; text-anchor:middle;" transform="rotate(0, 1807.33, 1557.47)" x="1807.33" y="1557.47">8</text>
</g>
<g clip-path="url(#clip0301)">
<text style="fill:#000000; fill-opacity:1; font-family:Arial,Helvetica Neue,Helvetica,sans-serif; font-size:48px; text-anchor:middle;" transform="rotate(0, 2260.13, 1557.47)" x="2260.13" y="1557.47">10</text>
</g>
<g clip-path="url(#clip0301)">
<text style="fill:#000000; fill-opacity:1; font-family:Arial,Helvetica Neue,Helvetica,sans-serif; font-size:48px; text-anchor:end;" transform="rotate(0, 137.394, 1261.54)" x="137.394" y="1261.54">0.2</text>
</g>
<g clip-path="url(#clip0301)">
<text style="fill:#000000; fill-opacity:1; font-family:Arial,Helvetica Neue,Helvetica,sans-serif; font-size:48px; text-anchor:end;" transform="rotate(0, 137.394, 985.126)" x="137.394" y="985.126">0.4</text>
</g>
<g clip-path="url(#clip0301)">
<text style="fill:#000000; fill-opacity:1; font-family:Arial,Helvetica Neue,Helvetica,sans-serif; font-size:48px; text-anchor:end;" transform="rotate(0, 137.394, 708.712)" x="137.394" y="708.712">0.6</text>
</g>
<g clip-path="url(#clip0301)">
<text style="fill:#000000; fill-opacity:1; font-family:Arial,Helvetica Neue,Helvetica,sans-serif; font-size:48px; text-anchor:end;" transform="rotate(0, 137.394, 432.298)" x="137.394" y="432.298">0.8</text>
</g>
<g clip-path="url(#clip0301)">
<text style="fill:#000000; fill-opacity:1; font-family:Arial,Helvetica Neue,Helvetica,sans-serif; font-size:48px; text-anchor:end;" transform="rotate(0, 137.394, 155.884)" x="137.394" y="155.884">1.0</text>
</g>
<g clip-path="url(#clip0301)">
<text style="fill:#000000; fill-opacity:1; font-family:Arial,Helvetica Neue,Helvetica,sans-serif; font-size:84px; text-anchor:middle;" transform="rotate(0, 1241.33, 73.2)" x="1241.33" y="73.2">Two Lines</text>
</g>
<polyline clip-path="url(#clip0303)" style="stroke:#009af9; stroke-width:12; stroke-opacity:1; fill:none" points="
  222.522,940.082 448.923,600.983 675.324,280.21 901.725,469.847 1128.13,763.237 1354.53,1371.9 1580.93,164.97 1807.33,1067.59 2033.73,271.661 2260.13,1106.5 
  
  "/>
<polyline clip-path="url(#clip0303)" style="stroke:#e26f46; stroke-width:12; stroke-opacity:1; fill:none" points="
  222.522,1464.49 448.923,495.661 675.324,1308.2 901.725,1183.58 1128.13,1249.51 1354.53,680.759 1580.93,557.977 1807.33,172.162 2033.73,1032.4 2260.13,420.706 
  
  "/>
<polygon clip-path="url(#clip0301)" points="
1878.14,390.944 2249.26,390.944 2249.26,209.504 1878.14,209.504 
  " fill="#ffffff" fill-rule="evenodd" fill-opacity="1"/>
<polyline clip-path="url(#clip0301)" style="stroke:#000000; stroke-width:4; stroke-opacity:1; fill:none" points="
  1878.14,390.944 2249.26,390.944 2249.26,209.504 1878.14,209.504 1878.14,390.944 
  "/>
<polyline clip-path="url(#clip0301)" style="stroke:#009af9; stroke-width:12; stroke-opacity:1; fill:none" points="
  1902.14,269.984 2046.14,269.984 
  "/>
<g clip-path="url(#clip0301)">
<text style="fill:#000000; fill-opacity:1; font-family:Arial,Helvetica Neue,Helvetica,sans-serif; font-size:48px; text-anchor:start;" transform="rotate(0, 2070.14, 287.484)" x="2070.14" y="287.484">Line 1</text>
</g>
<polyline clip-path="url(#clip0301)" style="stroke:#e26f46; stroke-width:12; stroke-opacity:1; fill:none" points="
  1902.14,330.464 2046.14,330.464 
  "/>
<g clip-path="url(#clip0301)">
<text style="fill:#000000; fill-opacity:1; font-family:Arial,Helvetica Neue,Helvetica,sans-serif; font-size:48px; text-anchor:start;" transform="rotate(0, 2070.14, 347.964)" x="2070.14" y="347.964">Line 2</text>
</g>
</svg>
