<?xml version="1.0" encoding="utf-8"?>
<svg xmlns="http://www.w3.org/2000/svg" xmlns:xlink="http://www.w3.org/1999/xlink" width="600" height="400" viewBox="0 0 2400 1600">
<defs>
  <clipPath id="clip3500">
    <rect x="0" y="0" width="2000" height="2000"/>
  </clipPath>
</defs>
<defs>
  <clipPath id="clip3501">
    <rect x="0" y="0" width="2400" height="1600"/>
  </clipPath>
</defs>
<polygon clip-path="url(#clip3501)" points="
0,1600 2400,1600 2400,0 0,0 
  " fill="#ffffff" fill-rule="evenodd" fill-opacity="1"/>
<defs>
  <clipPath id="clip3502">
    <rect x="480" y="0" width="1681" height="1600"/>
  </clipPath>
</defs>
<polygon clip-path="url(#clip3501)" points="
188.156,1503.47 2321.26,1503.47 2321.26,125.984 188.156,125.984 
  " fill="#ffffff" fill-rule="evenodd" fill-opacity="1"/>
<defs>
  <clipPath id="clip3503">
    <rect x="188" y="125" width="2134" height="1378"/>
  </clipPath>
</defs>
<polyline clip-path="url(#clip3503)" style="stroke:#000000; stroke-width:2; stroke-opacity:0.1; fill:none" points="
  472.123,1503.47 472.123,125.984 
  "/>
<polyline clip-path="url(#clip3503)" style="stroke:#000000; stroke-width:2; stroke-opacity:0.1; fill:none" points="
  919.314,1503.47 919.314,125.984 
  "/>
<polyline clip-path="url(#clip3503)" style="stroke:#000000; stroke-width:2; stroke-opacity:0.1; fill:none" points="
  1366.51,1503.47 1366.51,125.984 
  "/>
<polyline clip-path="url(#clip3503)" style="stroke:#000000; stroke-width:2; stroke-opacity:0.1; fill:none" points="
  1813.7,1503.47 1813.7,125.984 
  "/>
<polyline clip-path="url(#clip3503)" style="stroke:#000000; stroke-width:2; stroke-opacity:0.1; fill:none" points="
  2260.89,1503.47 2260.89,125.984 
  "/>
<polyline clip-path="url(#clip3503)" style="stroke:#000000; stroke-width:2; stroke-opacity:0.1; fill:none" points="
  188.156,1496.55 2321.26,1496.55 
  "/>
<polyline clip-path="url(#clip3503)" style="stroke:#000000; stroke-width:2; stroke-opacity:0.1; fill:none" points="
  188.156,1160 2321.26,1160 
  "/>
<polyline clip-path="url(#clip3503)" style="stroke:#000000; stroke-width:2; stroke-opacity:0.1; fill:none" points="
  188.156,823.455 2321.26,823.455 
  "/>
<polyline clip-path="url(#clip3503)" style="stroke:#000000; stroke-width:2; stroke-opacity:0.1; fill:none" points="
  188.156,486.907 2321.26,486.907 
  "/>
<polyline clip-path="url(#clip3503)" style="stroke:#000000; stroke-width:2; stroke-opacity:0.1; fill:none" points="
  188.156,150.36 2321.26,150.36 
  "/>
<polyline clip-path="url(#clip3501)" style="stroke:#000000; stroke-width:4; stroke-opacity:1; fill:none" points="
  188.156,1503.47 2321.26,1503.47 
  "/>
<polyline clip-path="url(#clip3501)" style="stroke:#000000; stroke-width:4; stroke-opacity:1; fill:none" points="
  188.156,1503.47 188.156,125.984 
  "/>
<polyline clip-path="url(#clip3501)" style="stroke:#000000; stroke-width:4; stroke-opacity:1; fill:none" points="
  472.123,1503.47 472.123,1482.81 
  "/>
<polyline clip-path="url(#clip3501)" style="stroke:#000000; stroke-width:4; stroke-opacity:1; fill:none" points="
  919.314,1503.47 919.314,1482.81 
  "/>
<polyline clip-path="url(#clip3501)" style="stroke:#000000; stroke-width:4; stroke-opacity:1; fill:none" points="
  1366.51,1503.47 1366.51,1482.81 
  "/>
<polyline clip-path="url(#clip3501)" style="stroke:#000000; stroke-width:4; stroke-opacity:1; fill:none" points="
  1813.7,1503.47 1813.7,1482.81 
  "/>
<polyline clip-path="url(#clip3501)" style="stroke:#000000; stroke-width:4; stroke-opacity:1; fill:none" points="
  2260.89,1503.47 2260.89,1482.81 
  "/>
<polyline clip-path="url(#clip3501)" style="stroke:#000000; stroke-width:4; stroke-opacity:1; fill:none" points="
  188.156,1496.55 220.153,1496.55 
  "/>
<polyline clip-path="url(#clip3501)" style="stroke:#000000; stroke-width:4; stroke-opacity:1; fill:none" points="
  188.156,1160 220.153,1160 
  "/>
<polyline clip-path="url(#clip3501)" style="stroke:#000000; stroke-width:4; stroke-opacity:1; fill:none" points="
  188.156,823.455 220.153,823.455 
  "/>
<polyline clip-path="url(#clip3501)" style="stroke:#000000; stroke-width:4; stroke-opacity:1; fill:none" points="
  188.156,486.907 220.153,486.907 
  "/>
<polyline clip-path="url(#clip3501)" style="stroke:#000000; stroke-width:4; stroke-opacity:1; fill:none" points="
  188.156,150.36 220.153,150.36 
  "/>
<g clip-path="url(#clip3501)">
<text style="fill:#000000; fill-opacity:1; font-family:Arial,Helvetica Neue,Helvetica,sans-serif; font-size:48px; text-anchor:middle;" transform="rotate(0, 472.123, 1557.47)" x="472.123" y="1557.47">2</text>
</g>
<g clip-path="url(#clip3501)">
<text style="fill:#000000; fill-opacity:1; font-family:Arial,Helvetica Neue,Helvetica,sans-serif; font-size:48px; text-anchor:middle;" transform="rotate(0, 919.314, 1557.47)" x="919.314" y="1557.47">4</text>
</g>
<g clip-path="url(#clip3501)">
<text style="fill:#000000; fill-opacity:1; font-family:Arial,Helvetica Neue,Helvetica,sans-serif; font-size:48px; text-anchor:middle;" transform="rotate(0, 1366.51, 1557.47)" x="1366.51" y="1557.47">6</text>
</g>
<g clip-path="url(#clip3501)">
<text style="fill:#000000; fill-opacity:1; font-family:Arial,Helvetica Neue,Helvetica,sans-serif; font-size:48px; text-anchor:middle;" transform="rotate(0, 1813.7, 1557.47)" x="1813.7" y="1557.47">8</text>
</g>
<g clip-path="url(#clip3501)">
<text style="fill:#000000; fill-opacity:1; font-family:Arial,Helvetica Neue,Helvetica,sans-serif; font-size:48px; text-anchor:middle;" transform="rotate(0, 2260.89, 1557.47)" x="2260.89" y="1557.47">10</text>
</g>
<g clip-path="url(#clip3501)">
<text style="fill:#000000; fill-opacity:1; font-family:Arial,Helvetica Neue,Helvetica,sans-serif; font-size:48px; text-anchor:end;" transform="rotate(0, 164.156, 1514.05)" x="164.156" y="1514.05">0.00</text>
</g>
<g clip-path="url(#clip3501)">
<text style="fill:#000000; fill-opacity:1; font-family:Arial,Helvetica Neue,Helvetica,sans-serif; font-size:48px; text-anchor:end;" transform="rotate(0, 164.156, 1177.5)" x="164.156" y="1177.5">0.25</text>
</g>
<g clip-path="url(#clip3501)">
<text style="fill:#000000; fill-opacity:1; font-family:Arial,Helvetica Neue,Helvetica,sans-serif; font-size:48px; text-anchor:end;" transform="rotate(0, 164.156, 840.955)" x="164.156" y="840.955">0.50</text>
</g>
<g clip-path="url(#clip3501)">
<text style="fill:#000000; fill-opacity:1; font-family:Arial,Helvetica Neue,Helvetica,sans-serif; font-size:48px; text-anchor:end;" transform="rotate(0, 164.156, 504.407)" x="164.156" y="504.407">0.75</text>
</g>
<g clip-path="url(#clip3501)">
<text style="fill:#000000; fill-opacity:1; font-family:Arial,Helvetica Neue,Helvetica,sans-serif; font-size:48px; text-anchor:end;" transform="rotate(0, 164.156, 167.86)" x="164.156" y="167.86">1.00</text>
</g>
<g clip-path="url(#clip3501)">
<text style="fill:#000000; fill-opacity:1; font-family:Arial,Helvetica Neue,Helvetica,sans-serif; font-size:84px; text-anchor:middle;" transform="rotate(0, 1254.71, 73.2)" x="1254.71" y="73.2">Two Lines</text>
</g>
<polyline clip-path="url(#clip3503)" style="stroke:#009af9; stroke-width:12; stroke-opacity:1; fill:none" points="
  248.527,601.61 472.123,251.975 695.719,1319.71 919.314,1362.31 1142.91,830.82 1366.51,1078.02 1590.1,539.7 1813.7,565.191 2037.29,1377.61 2260.89,1444.18 
  
  "/>
<polyline clip-path="url(#clip3503)" style="stroke:#e26f46; stroke-width:12; stroke-opacity:1; fill:none" points="
  248.527,524.062 472.123,535.599 695.719,345.1 919.314,164.97 1142.91,707.919 1366.51,438.725 1590.1,1038.54 1813.7,1464.49 2037.29,1201.55 2260.89,542.209 
  
  "/>
<polygon clip-path="url(#clip3501)" points="
1878.14,390.944 2249.26,390.944 2249.26,209.504 1878.14,209.504 
  " fill="#ffffff" fill-rule="evenodd" fill-opacity="1"/>
<polyline clip-path="url(#clip3501)" style="stroke:#000000; stroke-width:4; stroke-opacity:1; fill:none" points="
  1878.14,390.944 2249.26,390.944 2249.26,209.504 1878.14,209.504 1878.14,390.944 
  "/>
<polyline clip-path="url(#clip3501)" style="stroke:#009af9; stroke-width:12; stroke-opacity:1; fill:none" points="
  1902.14,269.984 2046.14,269.984 
  "/>
<g clip-path="url(#clip3501)">
<text style="fill:#000000; fill-opacity:1; font-family:Arial,Helvetica Neue,Helvetica,sans-serif; font-size:48px; text-anchor:start;" transform="rotate(0, 2070.14, 287.484)" x="2070.14" y="287.484">Line 1</text>
</g>
<polyline clip-path="url(#clip3501)" style="stroke:#e26f46; stroke-width:12; stroke-opacity:1; fill:none" points="
  1902.14,330.464 2046.14,330.464 
  "/>
<g clip-path="url(#clip3501)">
<text style="fill:#000000; fill-opacity:1; font-family:Arial,Helvetica Neue,Helvetica,sans-serif; font-size:48px; text-anchor:start;" transform="rotate(0, 2070.14, 347.964)" x="2070.14" y="347.964">Line 2</text>
</g>
</svg>
