<?xml version="1.0" encoding="utf-8"?>
<svg xmlns="http://www.w3.org/2000/svg" xmlns:xlink="http://www.w3.org/1999/xlink" width="600" height="400" viewBox="0 0 2400 1600">
<defs>
  <clipPath id="clip1200">
    <rect x="0" y="0" width="2000" height="2000"/>
  </clipPath>
</defs>
<defs>
  <clipPath id="clip1201">
    <rect x="0" y="0" width="2400" height="1600"/>
  </clipPath>
</defs>
<polygon clip-path="url(#clip1201)" points="
0,1600 2400,1600 2400,0 0,0 
  " fill="#ffffff" fill-rule="evenodd" fill-opacity="1"/>
<defs>
  <clipPath id="clip1202">
    <rect x="480" y="0" width="1681" height="1600"/>
  </clipPath>
</defs>
<polygon clip-path="url(#clip1201)" points="
161.394,1503.47 2321.26,1503.47 2321.26,125.984 161.394,125.984 
  " fill="#ffffff" fill-rule="evenodd" fill-opacity="1"/>
<defs>
  <clipPath id="clip1203">
    <rect x="161" y="125" width="2161" height="1378"/>
  </clipPath>
</defs>
<polyline clip-path="url(#clip1203)" style="stroke:#000000; stroke-width:2; stroke-opacity:0.1; fill:none" points="
  448.923,1503.47 448.923,125.984 
  "/>
<polyline clip-path="url(#clip1203)" style="stroke:#000000; stroke-width:2; stroke-opacity:0.1; fill:none" points="
  901.725,1503.47 901.725,125.984 
  "/>
<polyline clip-path="url(#clip1203)" style="stroke:#000000; stroke-width:2; stroke-opacity:0.1; fill:none" points="
  1354.53,1503.47 1354.53,125.984 
  "/>
<polyline clip-path="url(#clip1203)" style="stroke:#000000; stroke-width:2; stroke-opacity:0.1; fill:none" points="
  1807.33,1503.47 1807.33,125.984 
  "/>
<polyline clip-path="url(#clip1203)" style="stroke:#000000; stroke-width:2; stroke-opacity:0.1; fill:none" points="
  2260.13,1503.47 2260.13,125.984 
  "/>
<polyline clip-path="url(#clip1203)" style="stroke:#000000; stroke-width:2; stroke-opacity:0.1; fill:none" points="
  161.394,1306.65 2321.26,1306.65 
  "/>
<polyline clip-path="url(#clip1203)" style="stroke:#000000; stroke-width:2; stroke-opacity:0.1; fill:none" points="
  161.394,1010.71 2321.26,1010.71 
  "/>
<polyline clip-path="url(#clip1203)" style="stroke:#000000; stroke-width:2; stroke-opacity:0.1; fill:none" points="
  161.394,714.772 2321.26,714.772 
  "/>
<polyline clip-path="url(#clip1203)" style="stroke:#000000; stroke-width:2; stroke-opacity:0.1; fill:none" points="
  161.394,418.833 2321.26,418.833 
  "/>
<polyline clip-path="url(#clip1201)" style="stroke:#000000; stroke-width:4; stroke-opacity:1; fill:none" points="
  161.394,1503.47 2321.26,1503.47 
  "/>
<polyline clip-path="url(#clip1201)" style="stroke:#000000; stroke-width:4; stroke-opacity:1; fill:none" points="
  161.394,1503.47 161.394,125.984 
  "/>
<polyline clip-path="url(#clip1201)" style="stroke:#000000; stroke-width:4; stroke-opacity:1; fill:none" points="
  448.923,1503.47 448.923,1482.81 
  "/>
<polyline clip-path="url(#clip1201)" style="stroke:#000000; stroke-width:4; stroke-opacity:1; fill:none" points="
  901.725,1503.47 901.725,1482.81 
  "/>
<polyline clip-path="url(#clip1201)" style="stroke:#000000; stroke-width:4; stroke-opacity:1; fill:none" points="
  1354.53,1503.47 1354.53,1482.81 
  "/>
<polyline clip-path="url(#clip1201)" style="stroke:#000000; stroke-width:4; stroke-opacity:1; fill:none" points="
  1807.33,1503.47 1807.33,1482.81 
  "/>
<polyline clip-path="url(#clip1201)" style="stroke:#000000; stroke-width:4; stroke-opacity:1; fill:none" points="
  2260.13,1503.47 2260.13,1482.81 
  "/>
<polyline clip-path="url(#clip1201)" style="stroke:#000000; stroke-width:4; stroke-opacity:1; fill:none" points="
  161.394,1306.65 193.792,1306.65 
  "/>
<polyline clip-path="url(#clip1201)" style="stroke:#000000; stroke-width:4; stroke-opacity:1; fill:none" points="
  161.394,1010.71 193.792,1010.71 
  "/>
<polyline clip-path="url(#clip1201)" style="stroke:#000000; stroke-width:4; stroke-opacity:1; fill:none" points="
  161.394,714.772 193.792,714.772 
  "/>
<polyline clip-path="url(#clip1201)" style="stroke:#000000; stroke-width:4; stroke-opacity:1; fill:none" points="
  161.394,418.833 193.792,418.833 
  "/>
<g clip-path="url(#clip1201)">
<text style="fill:#000000; fill-opacity:1; font-family:Arial,Helvetica Neue,Helvetica,sans-serif; font-size:48px; text-anchor:middle;" transform="rotate(0, 448.923, 1557.47)" x="448.923" y="1557.47">2</text>
</g>
<g clip-path="url(#clip1201)">
<text style="fill:#000000; fill-opacity:1; font-family:Arial,Helvetica Neue,Helvetica,sans-serif; font-size:48px; text-anchor:middle;" transform="rotate(0, 901.725, 1557.47)" x="901.725" y="1557.47">4</text>
</g>
<g clip-path="url(#clip1201)">
<text style="fill:#000000; fill-opacity:1; font-family:Arial,Helvetica Neue,Helvetica,sans-serif; font-size:48px; text-anchor:middle;" transform="rotate(0, 1354.53, 1557.47)" x="1354.53" y="1557.47">6</text>
</g>
<g clip-path="url(#clip1201)">
<text style="fill:#000000; fill-opacity:1; font-family:Arial,Helvetica Neue,Helvetica,sans-serif; font-size:48px; text-anchor:middle;" transform="rotate(0, 1807.33, 1557.47)" x="1807.33" y="1557.47">8</text>
</g>
<g clip-path="url(#clip1201)">
<text style="fill:#000000; fill-opacity:1; font-family:Arial,Helvetica Neue,Helvetica,sans-serif; font-size:48px; text-anchor:middle;" transform="rotate(0, 2260.13, 1557.47)" x="2260.13" y="1557.47">10</text>
</g>
<g clip-path="url(#clip1201)">
<text style="fill:#000000; fill-opacity:1; font-family:Arial,Helvetica Neue,Helvetica,sans-serif; font-size:48px; text-anchor:end;" transform="rotate(0, 137.394, 1324.15)" x="137.394" y="1324.15">0.2</text>
</g>
<g clip-path="url(#clip1201)">
<text style="fill:#000000; fill-opacity:1; font-family:Arial,Helvetica Neue,Helvetica,sans-serif; font-size:48px; text-anchor:end;" transform="rotate(0, 137.394, 1028.21)" x="137.394" y="1028.21">0.4</text>
</g>
<g clip-path="url(#clip1201)">
<text style="fill:#000000; fill-opacity:1; font-family:Arial,Helvetica Neue,Helvetica,sans-serif; font-size:48px; text-anchor:end;" transform="rotate(0, 137.394, 732.272)" x="137.394" y="732.272">0.6</text>
</g>
<g clip-path="url(#clip1201)">
<text style="fill:#000000; fill-opacity:1; font-family:Arial,Helvetica Neue,Helvetica,sans-serif; font-size:48px; text-anchor:end;" transform="rotate(0, 137.394, 436.333)" x="137.394" y="436.333">0.8</text>
</g>
<g clip-path="url(#clip1201)">
<text style="fill:#000000; fill-opacity:1; font-family:Arial,Helvetica Neue,Helvetica,sans-serif; font-size:84px; text-anchor:middle;" transform="rotate(0, 1241.33, 73.2)" x="1241.33" y="73.2">Two Lines</text>
</g>
<polyline clip-path="url(#clip1203)" style="stroke:#009af9; stroke-width:12; stroke-opacity:1; fill:none" points="
  222.522,1148.16 448.923,1283.36 675.324,1434.19 901.725,164.97 1128.13,793.31 1354.53,441.038 1580.93,556.793 1807.33,787.607 2033.73,363.982 2260.13,561.62 
  
  "/>
<polyline clip-path="url(#clip1203)" style="stroke:#e26f46; stroke-width:12; stroke-opacity:1; fill:none" points="
  222.522,450.88 448.923,1197.02 675.324,664.086 901.725,1239.8 1128.13,1464.49 1354.53,513.206 1580.93,1383.13 1807.33,958.308 2033.73,995.872 2260.13,929.597 
  
  "/>
<polygon clip-path="url(#clip1201)" points="
1878.14,390.944 2249.26,390.944 2249.26,209.504 1878.14,209.504 
  " fill="#ffffff" fill-rule="evenodd" fill-opacity="1"/>
<polyline clip-path="url(#clip1201)" style="stroke:#000000; stroke-width:4; stroke-opacity:1; fill:none" points="
  1878.14,390.944 2249.26,390.944 2249.26,209.504 1878.14,209.504 1878.14,390.944 
  "/>
<polyline clip-path="url(#clip1201)" style="stroke:#009af9; stroke-width:12; stroke-opacity:1; fill:none" points="
  1902.14,269.984 2046.14,269.984 
  "/>
<g clip-path="url(#clip1201)">
<text style="fill:#000000; fill-opacity:1; font-family:Arial,Helvetica Neue,Helvetica,sans-serif; font-size:48px; text-anchor:start;" transform="rotate(0, 2070.14, 287.484)" x="2070.14" y="287.484">Line 1</text>
</g>
<polyline clip-path="url(#clip1201)" style="stroke:#e26f46; stroke-width:12; stroke-opacity:1; fill:none" points="
  1902.14,330.464 2046.14,330.464 
  "/>
<g clip-path="url(#clip1201)">
<text style="fill:#000000; fill-opacity:1; font-family:Arial,Helvetica Neue,Helvetica,sans-serif; font-size:48px; text-anchor:start;" transform="rotate(0, 2070.14, 347.964)" x="2070.14" y="347.964">Line 2</text>
</g>
</svg>
