<?xml version="1.0" encoding="utf-8"?>
<svg xmlns="http://www.w3.org/2000/svg" xmlns:xlink="http://www.w3.org/1999/xlink" width="600" height="400" viewBox="0 0 2400 1600">
<defs>
  <clipPath id="clip2300">
    <rect x="0" y="0" width="2000" height="2000"/>
  </clipPath>
</defs>
<defs>
  <clipPath id="clip2301">
    <rect x="0" y="0" width="2400" height="1600"/>
  </clipPath>
</defs>
<polygon clip-path="url(#clip2301)" points="
0,1600 2400,1600 2400,0 0,0 
  " fill="#ffffff" fill-rule="evenodd" fill-opacity="1"/>
<defs>
  <clipPath id="clip2302">
    <rect x="480" y="0" width="1681" height="1600"/>
  </clipPath>
</defs>
<polygon clip-path="url(#clip2301)" points="
188.156,1503.47 2321.26,1503.47 2321.26,125.984 188.156,125.984 
  " fill="#ffffff" fill-rule="evenodd" fill-opacity="1"/>
<defs>
  <clipPath id="clip2303">
    <rect x="188" y="125" width="2134" height="1378"/>
  </clipPath>
</defs>
<polyline clip-path="url(#clip2303)" style="stroke:#000000; stroke-width:2; stroke-opacity:0.1; fill:none" points="
  472.123,1503.47 472.123,125.984 
  "/>
<polyline clip-path="url(#clip2303)" style="stroke:#000000; stroke-width:2; stroke-opacity:0.1; fill:none" points="
  919.314,1503.47 919.314,125.984 
  "/>
<polyline clip-path="url(#clip2303)" style="stroke:#000000; stroke-width:2; stroke-opacity:0.1; fill:none" points="
  1366.51,1503.47 1366.51,125.984 
  "/>
<polyline clip-path="url(#clip2303)" style="stroke:#000000; stroke-width:2; stroke-opacity:0.1; fill:none" points="
  1813.7,1503.47 1813.7,125.984 
  "/>
<polyline clip-path="url(#clip2303)" style="stroke:#000000; stroke-width:2; stroke-opacity:0.1; fill:none" points="
  2260.89,1503.47 2260.89,125.984 
  "/>
<polyline clip-path="url(#clip2303)" style="stroke:#000000; stroke-width:2; stroke-opacity:0.1; fill:none" points="
  188.156,1493 2321.26,1493 
  "/>
<polyline clip-path="url(#clip2303)" style="stroke:#000000; stroke-width:2; stroke-opacity:0.1; fill:none" points="
  188.156,1151.29 2321.26,1151.29 
  "/>
<polyline clip-path="url(#clip2303)" style="stroke:#000000; stroke-width:2; stroke-opacity:0.1; fill:none" points="
  188.156,809.57 2321.26,809.57 
  "/>
<polyline clip-path="url(#clip2303)" style="stroke:#000000; stroke-width:2; stroke-opacity:0.1; fill:none" points="
  188.156,467.853 2321.26,467.853 
  "/>
<polyline clip-path="url(#clip2303)" style="stroke:#000000; stroke-width:2; stroke-opacity:0.1; fill:none" points="
  188.156,126.136 2321.26,126.136 
  "/>
<polyline clip-path="url(#clip2301)" style="stroke:#000000; stroke-width:4; stroke-opacity:1; fill:none" points="
  188.156,1503.47 2321.26,1503.47 
  "/>
<polyline clip-path="url(#clip2301)" style="stroke:#000000; stroke-width:4; stroke-opacity:1; fill:none" points="
  188.156,1503.47 188.156,125.984 
  "/>
<polyline clip-path="url(#clip2301)" style="stroke:#000000; stroke-width:4; stroke-opacity:1; fill:none" points="
  472.123,1503.47 472.123,1482.81 
  "/>
<polyline clip-path="url(#clip2301)" style="stroke:#000000; stroke-width:4; stroke-opacity:1; fill:none" points="
  919.314,1503.47 919.314,1482.81 
  "/>
<polyline clip-path="url(#clip2301)" style="stroke:#000000; stroke-width:4; stroke-opacity:1; fill:none" points="
  1366.51,1503.47 1366.51,1482.81 
  "/>
<polyline clip-path="url(#clip2301)" style="stroke:#000000; stroke-width:4; stroke-opacity:1; fill:none" points="
  1813.7,1503.47 1813.7,1482.81 
  "/>
<polyline clip-path="url(#clip2301)" style="stroke:#000000; stroke-width:4; stroke-opacity:1; fill:none" points="
  2260.89,1503.47 2260.89,1482.81 
  "/>
<polyline clip-path="url(#clip2301)" style="stroke:#000000; stroke-width:4; stroke-opacity:1; fill:none" points="
  188.156,1493 220.153,1493 
  "/>
<polyline clip-path="url(#clip2301)" style="stroke:#000000; stroke-width:4; stroke-opacity:1; fill:none" points="
  188.156,1151.29 220.153,1151.29 
  "/>
<polyline clip-path="url(#clip2301)" style="stroke:#000000; stroke-width:4; stroke-opacity:1; fill:none" points="
  188.156,809.57 220.153,809.57 
  "/>
<polyline clip-path="url(#clip2301)" style="stroke:#000000; stroke-width:4; stroke-opacity:1; fill:none" points="
  188.156,467.853 220.153,467.853 
  "/>
<polyline clip-path="url(#clip2301)" style="stroke:#000000; stroke-width:4; stroke-opacity:1; fill:none" points="
  188.156,126.136 220.153,126.136 
  "/>
<g clip-path="url(#clip2301)">
<text style="fill:#000000; fill-opacity:1; font-family:Arial,Helvetica Neue,Helvetica,sans-serif; font-size:48px; text-anchor:middle;" transform="rotate(0, 472.123, 1557.47)" x="472.123" y="1557.47">2</text>
</g>
<g clip-path="url(#clip2301)">
<text style="fill:#000000; fill-opacity:1; font-family:Arial,Helvetica Neue,Helvetica,sans-serif; font-size:48px; text-anchor:middle;" transform="rotate(0, 919.314, 1557.47)" x="919.314" y="1557.47">4</text>
</g>
<g clip-path="url(#clip2301)">
<text style="fill:#000000; fill-opacity:1; font-family:Arial,Helvetica Neue,Helvetica,sans-serif; font-size:48px; text-anchor:middle;" transform="rotate(0, 1366.51, 1557.47)" x="1366.51" y="1557.47">6</text>
</g>
<g clip-path="url(#clip2301)">
<text style="fill:#000000; fill-opacity:1; font-family:Arial,Helvetica Neue,Helvetica,sans-serif; font-size:48px; text-anchor:middle;" transform="rotate(0, 1813.7, 1557.47)" x="1813.7" y="1557.47">8</text>
</g>
<g clip-path="url(#clip2301)">
<text style="fill:#000000; fill-opacity:1; font-family:Arial,Helvetica Neue,Helvetica,sans-serif; font-size:48px; text-anchor:middle;" transform="rotate(0, 2260.89, 1557.47)" x="2260.89" y="1557.47">10</text>
</g>
<g clip-path="url(#clip2301)">
<text style="fill:#000000; fill-opacity:1; font-family:Arial,Helvetica Neue,Helvetica,sans-serif; font-size:48px; text-anchor:end;" transform="rotate(0, 164.156, 1510.5)" x="164.156" y="1510.5">0.00</text>
</g>
<g clip-path="url(#clip2301)">
<text style="fill:#000000; fill-opacity:1; font-family:Arial,Helvetica Neue,Helvetica,sans-serif; font-size:48px; text-anchor:end;" transform="rotate(0, 164.156, 1168.79)" x="164.156" y="1168.79">0.25</text>
</g>
<g clip-path="url(#clip2301)">
<text style="fill:#000000; fill-opacity:1; font-family:Arial,Helvetica Neue,Helvetica,sans-serif; font-size:48px; text-anchor:end;" transform="rotate(0, 164.156, 827.07)" x="164.156" y="827.07">0.50</text>
</g>
<g clip-path="url(#clip2301)">
<text style="fill:#000000; fill-opacity:1; font-family:Arial,Helvetica Neue,Helvetica,sans-serif; font-size:48px; text-anchor:end;" transform="rotate(0, 164.156, 485.353)" x="164.156" y="485.353">0.75</text>
</g>
<g clip-path="url(#clip2301)">
<text style="fill:#000000; fill-opacity:1; font-family:Arial,Helvetica Neue,Helvetica,sans-serif; font-size:48px; text-anchor:end;" transform="rotate(0, 164.156, 143.636)" x="164.156" y="143.636">1.00</text>
</g>
<g clip-path="url(#clip2301)">
<text style="fill:#000000; fill-opacity:1; font-family:Arial,Helvetica Neue,Helvetica,sans-serif; font-size:84px; text-anchor:middle;" transform="rotate(0, 1254.71, 73.2)" x="1254.71" y="73.2">Two Lines</text>
</g>
<polyline clip-path="url(#clip2303)" style="stroke:#009af9; stroke-width:12; stroke-opacity:1; fill:none" points="
  248.527,646.356 472.123,573.153 695.719,533.815 919.314,370.439 1142.91,180.01 1366.51,164.97 1590.1,412.453 1813.7,1385.39 2037.29,406.014 2260.89,1211.05 
  
  "/>
<polyline clip-path="url(#clip2303)" style="stroke:#e26f46; stroke-width:12; stroke-opacity:1; fill:none" points="
  248.527,1221.64 472.123,796.559 695.719,1118.32 919.314,866.331 1142.91,446.636 1366.51,1237.69 1590.1,350.43 1813.7,916.886 2037.29,865.368 2260.89,1464.49 
  
  "/>
<polygon clip-path="url(#clip2301)" points="
1878.14,390.944 2249.26,390.944 2249.26,209.504 1878.14,209.504 
  " fill="#ffffff" fill-rule="evenodd" fill-opacity="1"/>
<polyline clip-path="url(#clip2301)" style="stroke:#000000; stroke-width:4; stroke-opacity:1; fill:none" points="
  1878.14,390.944 2249.26,390.944 2249.26,209.504 1878.14,209.504 1878.14,390.944 
  "/>
<polyline clip-path="url(#clip2301)" style="stroke:#009af9; stroke-width:12; stroke-opacity:1; fill:none" points="
  1902.14,269.984 2046.14,269.984 
  "/>
<g clip-path="url(#clip2301)">
<text style="fill:#000000; fill-opacity:1; font-family:Arial,Helvetica Neue,Helvetica,sans-serif; font-size:48px; text-anchor:start;" transform="rotate(0, 2070.14, 287.484)" x="2070.14" y="287.484">Line 1</text>
</g>
<polyline clip-path="url(#clip2301)" style="stroke:#e26f46; stroke-width:12; stroke-opacity:1; fill:none" points="
  1902.14,330.464 2046.14,330.464 
  "/>
<g clip-path="url(#clip2301)">
<text style="fill:#000000; fill-opacity:1; font-family:Arial,Helvetica Neue,Helvetica,sans-serif; font-size:48px; text-anchor:start;" transform="rotate(0, 2070.14, 347.964)" x="2070.14" y="347.964">Line 2</text>
</g>
</svg>
