<?xml version="1.0" encoding="utf-8"?>
<svg xmlns="http://www.w3.org/2000/svg" xmlns:xlink="http://www.w3.org/1999/xlink" width="600" height="400" viewBox="0 0 2400 1600">
<defs>
  <clipPath id="clip8800">
    <rect x="0" y="0" width="2000" height="2000"/>
  </clipPath>
</defs>
<defs>
  <clipPath id="clip8801">
    <rect x="0" y="0" width="2400" height="1600"/>
  </clipPath>
</defs>
<polygon clip-path="url(#clip8801)" points="
0,1600 2400,1600 2400,0 0,0 
  " fill="#ffffff" fill-rule="evenodd" fill-opacity="1"/>
<defs>
  <clipPath id="clip8802">
    <rect x="480" y="0" width="1681" height="1600"/>
  </clipPath>
</defs>
<polygon clip-path="url(#clip8801)" points="
161.394,1503.47 2321.26,1503.47 2321.26,125.984 161.394,125.984 
  " fill="#ffffff" fill-rule="evenodd" fill-opacity="1"/>
<defs>
  <clipPath id="clip8803">
    <rect x="161" y="125" width="2161" height="1378"/>
  </clipPath>
</defs>
<polyline clip-path="url(#clip8803)" style="stroke:#000000; stroke-width:2; stroke-opacity:0.1; fill:none" points="
  448.923,1503.47 448.923,125.984 
  "/>
<polyline clip-path="url(#clip8803)" style="stroke:#000000; stroke-width:2; stroke-opacity:0.1; fill:none" points="
  901.725,1503.47 901.725,125.984 
  "/>
<polyline clip-path="url(#clip8803)" style="stroke:#000000; stroke-width:2; stroke-opacity:0.1; fill:none" points="
  1354.53,1503.47 1354.53,125.984 
  "/>
<polyline clip-path="url(#clip8803)" style="stroke:#000000; stroke-width:2; stroke-opacity:0.1; fill:none" points="
  1807.33,1503.47 1807.33,125.984 
  "/>
<polyline clip-path="url(#clip8803)" style="stroke:#000000; stroke-width:2; stroke-opacity:0.1; fill:none" points="
  2260.13,1503.47 2260.13,125.984 
  "/>
<polyline clip-path="url(#clip8803)" style="stroke:#000000; stroke-width:2; stroke-opacity:0.1; fill:none" points="
  161.394,1303.64 2321.26,1303.64 
  "/>
<polyline clip-path="url(#clip8803)" style="stroke:#000000; stroke-width:2; stroke-opacity:0.1; fill:none" points="
  161.394,1017.41 2321.26,1017.41 
  "/>
<polyline clip-path="url(#clip8803)" style="stroke:#000000; stroke-width:2; stroke-opacity:0.1; fill:none" points="
  161.394,731.183 2321.26,731.183 
  "/>
<polyline clip-path="url(#clip8803)" style="stroke:#000000; stroke-width:2; stroke-opacity:0.1; fill:none" points="
  161.394,444.956 2321.26,444.956 
  "/>
<polyline clip-path="url(#clip8803)" style="stroke:#000000; stroke-width:2; stroke-opacity:0.1; fill:none" points="
  161.394,158.73 2321.26,158.73 
  "/>
<polyline clip-path="url(#clip8801)" style="stroke:#000000; stroke-width:4; stroke-opacity:1; fill:none" points="
  161.394,1503.47 2321.26,1503.47 
  "/>
<polyline clip-path="url(#clip8801)" style="stroke:#000000; stroke-width:4; stroke-opacity:1; fill:none" points="
  161.394,1503.47 161.394,125.984 
  "/>
<polyline clip-path="url(#clip8801)" style="stroke:#000000; stroke-width:4; stroke-opacity:1; fill:none" points="
  448.923,1503.47 448.923,1482.81 
  "/>
<polyline clip-path="url(#clip8801)" style="stroke:#000000; stroke-width:4; stroke-opacity:1; fill:none" points="
  901.725,1503.47 901.725,1482.81 
  "/>
<polyline clip-path="url(#clip8801)" style="stroke:#000000; stroke-width:4; stroke-opacity:1; fill:none" points="
  1354.53,1503.47 1354.53,1482.81 
  "/>
<polyline clip-path="url(#clip8801)" style="stroke:#000000; stroke-width:4; stroke-opacity:1; fill:none" points="
  1807.33,1503.47 1807.33,1482.81 
  "/>
<polyline clip-path="url(#clip8801)" style="stroke:#000000; stroke-width:4; stroke-opacity:1; fill:none" points="
  2260.13,1503.47 2260.13,1482.81 
  "/>
<polyline clip-path="url(#clip8801)" style="stroke:#000000; stroke-width:4; stroke-opacity:1; fill:none" points="
  161.394,1303.64 193.792,1303.64 
  "/>
<polyline clip-path="url(#clip8801)" style="stroke:#000000; stroke-width:4; stroke-opacity:1; fill:none" points="
  161.394,1017.41 193.792,1017.41 
  "/>
<polyline clip-path="url(#clip8801)" style="stroke:#000000; stroke-width:4; stroke-opacity:1; fill:none" points="
  161.394,731.183 193.792,731.183 
  "/>
<polyline clip-path="url(#clip8801)" style="stroke:#000000; stroke-width:4; stroke-opacity:1; fill:none" points="
  161.394,444.956 193.792,444.956 
  "/>
<polyline clip-path="url(#clip8801)" style="stroke:#000000; stroke-width:4; stroke-opacity:1; fill:none" points="
  161.394,158.73 193.792,158.73 
  "/>
<g clip-path="url(#clip8801)">
<text style="fill:#000000; fill-opacity:1; font-family:Arial,Helvetica Neue,Helvetica,sans-serif; font-size:48px; text-anchor:middle;" transform="rotate(0, 448.923, 1557.47)" x="448.923" y="1557.47">2</text>
</g>
<g clip-path="url(#clip8801)">
<text style="fill:#000000; fill-opacity:1; font-family:Arial,Helvetica Neue,Helvetica,sans-serif; font-size:48px; text-anchor:middle;" transform="rotate(0, 901.725, 1557.47)" x="901.725" y="1557.47">4</text>
</g>
<g clip-path="url(#clip8801)">
<text style="fill:#000000; fill-opacity:1; font-family:Arial,Helvetica Neue,Helvetica,sans-serif; font-size:48px; text-anchor:middle;" transform="rotate(0, 1354.53, 1557.47)" x="1354.53" y="1557.47">6</text>
</g>
<g clip-path="url(#clip8801)">
<text style="fill:#000000; fill-opacity:1; font-family:Arial,Helvetica Neue,Helvetica,sans-serif; font-size:48px; text-anchor:middle;" transform="rotate(0, 1807.33, 1557.47)" x="1807.33" y="1557.47">8</text>
</g>
<g clip-path="url(#clip8801)">
<text style="fill:#000000; fill-opacity:1; font-family:Arial,Helvetica Neue,Helvetica,sans-serif; font-size:48px; text-anchor:middle;" transform="rotate(0, 2260.13, 1557.47)" x="2260.13" y="1557.47">10</text>
</g>
<g clip-path="url(#clip8801)">
<text style="fill:#000000; fill-opacity:1; font-family:Arial,Helvetica Neue,Helvetica,sans-serif; font-size:48px; text-anchor:end;" transform="rotate(0, 137.394, 1321.14)" x="137.394" y="1321.14">0.2</text>
</g>
<g clip-path="url(#clip8801)">
<text style="fill:#000000; fill-opacity:1; font-family:Arial,Helvetica Neue,Helvetica,sans-serif; font-size:48px; text-anchor:end;" transform="rotate(0, 137.394, 1034.91)" x="137.394" y="1034.91">0.4</text>
</g>
<g clip-path="url(#clip8801)">
<text style="fill:#000000; fill-opacity:1; font-family:Arial,Helvetica Neue,Helvetica,sans-serif; font-size:48px; text-anchor:end;" transform="rotate(0, 137.394, 748.683)" x="137.394" y="748.683">0.6</text>
</g>
<g clip-path="url(#clip8801)">
<text style="fill:#000000; fill-opacity:1; font-family:Arial,Helvetica Neue,Helvetica,sans-serif; font-size:48px; text-anchor:end;" transform="rotate(0, 137.394, 462.456)" x="137.394" y="462.456">0.8</text>
</g>
<g clip-path="url(#clip8801)">
<text style="fill:#000000; fill-opacity:1; font-family:Arial,Helvetica Neue,Helvetica,sans-serif; font-size:48px; text-anchor:end;" transform="rotate(0, 137.394, 176.23)" x="137.394" y="176.23">1.0</text>
</g>
<g clip-path="url(#clip8801)">
<text style="fill:#000000; fill-opacity:1; font-family:Arial,Helvetica Neue,Helvetica,sans-serif; font-size:84px; text-anchor:middle;" transform="rotate(0, 1241.33, 73.2)" x="1241.33" y="73.2">Two Lines</text>
</g>
<polyline clip-path="url(#clip8803)" style="stroke:#009af9; stroke-width:12; stroke-opacity:1; fill:none" points="
  222.522,648.608 448.923,699.545 675.324,168.863 901.725,628.425 1128.13,1070.32 1354.53,1000.7 1580.93,332.848 1807.33,1089.75 2033.73,1361.12 2260.13,566.001 
  
  "/>
<polyline clip-path="url(#clip8803)" style="stroke:#e26f46; stroke-width:12; stroke-opacity:1; fill:none" points="
  222.522,1152.12 448.923,346.361 675.324,1181.98 901.725,1450.22 1128.13,1148.29 1354.53,1464.49 1580.93,554.785 1807.33,1259.34 2033.73,950.41 2260.13,164.97 
  
  "/>
<polygon clip-path="url(#clip8801)" points="
1878.14,390.944 2249.26,390.944 2249.26,209.504 1878.14,209.504 
  " fill="#ffffff" fill-rule="evenodd" fill-opacity="1"/>
<polyline clip-path="url(#clip8801)" style="stroke:#000000; stroke-width:4; stroke-opacity:1; fill:none" points="
  1878.14,390.944 2249.26,390.944 2249.26,209.504 1878.14,209.504 1878.14,390.944 
  "/>
<polyline clip-path="url(#clip8801)" style="stroke:#009af9; stroke-width:12; stroke-opacity:1; fill:none" points="
  1902.14,269.984 2046.14,269.984 
  "/>
<g clip-path="url(#clip8801)">
<text style="fill:#000000; fill-opacity:1; font-family:Arial,Helvetica Neue,Helvetica,sans-serif; font-size:48px; text-anchor:start;" transform="rotate(0, 2070.14, 287.484)" x="2070.14" y="287.484">Line 1</text>
</g>
<polyline clip-path="url(#clip8801)" style="stroke:#e26f46; stroke-width:12; stroke-opacity:1; fill:none" points="
  1902.14,330.464 2046.14,330.464 
  "/>
<g clip-path="url(#clip8801)">
<text style="fill:#000000; fill-opacity:1; font-family:Arial,Helvetica Neue,Helvetica,sans-serif; font-size:48px; text-anchor:start;" transform="rotate(0, 2070.14, 347.964)" x="2070.14" y="347.964">Line 2</text>
</g>
</svg>
