<?xml version="1.0" encoding="utf-8"?>
<svg xmlns="http://www.w3.org/2000/svg" xmlns:xlink="http://www.w3.org/1999/xlink" width="600" height="400" viewBox="0 0 2400 1600">
<defs>
  <clipPath id="clip8500">
    <rect x="0" y="0" width="2000" height="2000"/>
  </clipPath>
</defs>
<defs>
  <clipPath id="clip8501">
    <rect x="0" y="0" width="2400" height="1600"/>
  </clipPath>
</defs>
<polygon clip-path="url(#clip8501)" points="
0,1600 2400,1600 2400,0 0,0 
  " fill="#ffffff" fill-rule="evenodd" fill-opacity="1"/>
<defs>
  <clipPath id="clip8502">
    <rect x="480" y="0" width="1681" height="1600"/>
  </clipPath>
</defs>
<polygon clip-path="url(#clip8501)" points="
188.156,1503.47 2321.26,1503.47 2321.26,125.984 188.156,125.984 
  " fill="#ffffff" fill-rule="evenodd" fill-opacity="1"/>
<defs>
  <clipPath id="clip8503">
    <rect x="188" y="125" width="2134" height="1378"/>
  </clipPath>
</defs>
<polyline clip-path="url(#clip8503)" style="stroke:#000000; stroke-width:2; stroke-opacity:0.1; fill:none" points="
  472.123,1503.47 472.123,125.984 
  "/>
<polyline clip-path="url(#clip8503)" style="stroke:#000000; stroke-width:2; stroke-opacity:0.1; fill:none" points="
  919.314,1503.47 919.314,125.984 
  "/>
<polyline clip-path="url(#clip8503)" style="stroke:#000000; stroke-width:2; stroke-opacity:0.1; fill:none" points="
  1366.51,1503.47 1366.51,125.984 
  "/>
<polyline clip-path="url(#clip8503)" style="stroke:#000000; stroke-width:2; stroke-opacity:0.1; fill:none" points="
  1813.7,1503.47 1813.7,125.984 
  "/>
<polyline clip-path="url(#clip8503)" style="stroke:#000000; stroke-width:2; stroke-opacity:0.1; fill:none" points="
  2260.89,1503.47 2260.89,125.984 
  "/>
<polyline clip-path="url(#clip8503)" style="stroke:#000000; stroke-width:2; stroke-opacity:0.1; fill:none" points="
  188.156,1499.91 2321.26,1499.91 
  "/>
<polyline clip-path="url(#clip8503)" style="stroke:#000000; stroke-width:2; stroke-opacity:0.1; fill:none" points="
  188.156,1165.92 2321.26,1165.92 
  "/>
<polyline clip-path="url(#clip8503)" style="stroke:#000000; stroke-width:2; stroke-opacity:0.1; fill:none" points="
  188.156,831.922 2321.26,831.922 
  "/>
<polyline clip-path="url(#clip8503)" style="stroke:#000000; stroke-width:2; stroke-opacity:0.1; fill:none" points="
  188.156,497.929 2321.26,497.929 
  "/>
<polyline clip-path="url(#clip8503)" style="stroke:#000000; stroke-width:2; stroke-opacity:0.1; fill:none" points="
  188.156,163.935 2321.26,163.935 
  "/>
<polyline clip-path="url(#clip8501)" style="stroke:#000000; stroke-width:4; stroke-opacity:1; fill:none" points="
  188.156,1503.47 2321.26,1503.47 
  "/>
<polyline clip-path="url(#clip8501)" style="stroke:#000000; stroke-width:4; stroke-opacity:1; fill:none" points="
  188.156,1503.47 188.156,125.984 
  "/>
<polyline clip-path="url(#clip8501)" style="stroke:#000000; stroke-width:4; stroke-opacity:1; fill:none" points="
  472.123,1503.47 472.123,1482.81 
  "/>
<polyline clip-path="url(#clip8501)" style="stroke:#000000; stroke-width:4; stroke-opacity:1; fill:none" points="
  919.314,1503.47 919.314,1482.81 
  "/>
<polyline clip-path="url(#clip8501)" style="stroke:#000000; stroke-width:4; stroke-opacity:1; fill:none" points="
  1366.51,1503.47 1366.51,1482.81 
  "/>
<polyline clip-path="url(#clip8501)" style="stroke:#000000; stroke-width:4; stroke-opacity:1; fill:none" points="
  1813.7,1503.47 1813.7,1482.81 
  "/>
<polyline clip-path="url(#clip8501)" style="stroke:#000000; stroke-width:4; stroke-opacity:1; fill:none" points="
  2260.89,1503.47 2260.89,1482.81 
  "/>
<polyline clip-path="url(#clip8501)" style="stroke:#000000; stroke-width:4; stroke-opacity:1; fill:none" points="
  188.156,1499.91 220.153,1499.91 
  "/>
<polyline clip-path="url(#clip8501)" style="stroke:#000000; stroke-width:4; stroke-opacity:1; fill:none" points="
  188.156,1165.92 220.153,1165.92 
  "/>
<polyline clip-path="url(#clip8501)" style="stroke:#000000; stroke-width:4; stroke-opacity:1; fill:none" points="
  188.156,831.922 220.153,831.922 
  "/>
<polyline clip-path="url(#clip8501)" style="stroke:#000000; stroke-width:4; stroke-opacity:1; fill:none" points="
  188.156,497.929 220.153,497.929 
  "/>
<polyline clip-path="url(#clip8501)" style="stroke:#000000; stroke-width:4; stroke-opacity:1; fill:none" points="
  188.156,163.935 220.153,163.935 
  "/>
<g clip-path="url(#clip8501)">
<text style="fill:#000000; fill-opacity:1; font-family:Arial,Helvetica Neue,Helvetica,sans-serif; font-size:48px; text-anchor:middle;" transform="rotate(0, 472.123, 1557.47)" x="472.123" y="1557.47">2</text>
</g>
<g clip-path="url(#clip8501)">
<text style="fill:#000000; fill-opacity:1; font-family:Arial,Helvetica Neue,Helvetica,sans-serif; font-size:48px; text-anchor:middle;" transform="rotate(0, 919.314, 1557.47)" x="919.314" y="1557.47">4</text>
</g>
<g clip-path="url(#clip8501)">
<text style="fill:#000000; fill-opacity:1; font-family:Arial,Helvetica Neue,Helvetica,sans-serif; font-size:48px; text-anchor:middle;" transform="rotate(0, 1366.51, 1557.47)" x="1366.51" y="1557.47">6</text>
</g>
<g clip-path="url(#clip8501)">
<text style="fill:#000000; fill-opacity:1; font-family:Arial,Helvetica Neue,Helvetica,sans-serif; font-size:48px; text-anchor:middle;" transform="rotate(0, 1813.7, 1557.47)" x="1813.7" y="1557.47">8</text>
</g>
<g clip-path="url(#clip8501)">
<text style="fill:#000000; fill-opacity:1; font-family:Arial,Helvetica Neue,Helvetica,sans-serif; font-size:48px; text-anchor:middle;" transform="rotate(0, 2260.89, 1557.47)" x="2260.89" y="1557.47">10</text>
</g>
<g clip-path="url(#clip8501)">
<text style="fill:#000000; fill-opacity:1; font-family:Arial,Helvetica Neue,Helvetica,sans-serif; font-size:48px; text-anchor:end;" transform="rotate(0, 164.156, 1517.41)" x="164.156" y="1517.41">0.00</text>
</g>
<g clip-path="url(#clip8501)">
<text style="fill:#000000; fill-opacity:1; font-family:Arial,Helvetica Neue,Helvetica,sans-serif; font-size:48px; text-anchor:end;" transform="rotate(0, 164.156, 1183.42)" x="164.156" y="1183.42">0.25</text>
</g>
<g clip-path="url(#clip8501)">
<text style="fill:#000000; fill-opacity:1; font-family:Arial,Helvetica Neue,Helvetica,sans-serif; font-size:48px; text-anchor:end;" transform="rotate(0, 164.156, 849.422)" x="164.156" y="849.422">0.50</text>
</g>
<g clip-path="url(#clip8501)">
<text style="fill:#000000; fill-opacity:1; font-family:Arial,Helvetica Neue,Helvetica,sans-serif; font-size:48px; text-anchor:end;" transform="rotate(0, 164.156, 515.429)" x="164.156" y="515.429">0.75</text>
</g>
<g clip-path="url(#clip8501)">
<text style="fill:#000000; fill-opacity:1; font-family:Arial,Helvetica Neue,Helvetica,sans-serif; font-size:48px; text-anchor:end;" transform="rotate(0, 164.156, 181.435)" x="164.156" y="181.435">1.00</text>
</g>
<g clip-path="url(#clip8501)">
<text style="fill:#000000; fill-opacity:1; font-family:Arial,Helvetica Neue,Helvetica,sans-serif; font-size:84px; text-anchor:middle;" transform="rotate(0, 1254.71, 73.2)" x="1254.71" y="73.2">Two Lines</text>
</g>
<polyline clip-path="url(#clip8503)" style="stroke:#009af9; stroke-width:12; stroke-opacity:1; fill:none" points="
  248.527,851.144 472.123,1405.73 695.719,1430.53 919.314,590.905 1142.91,647.929 1366.51,1393.22 1590.1,325.071 1813.7,1055.98 2037.29,321.479 2260.89,958.469 
  
  "/>
<polyline clip-path="url(#clip8503)" style="stroke:#e26f46; stroke-width:12; stroke-opacity:1; fill:none" points="
  248.527,1334.98 472.123,1464.49 695.719,878.511 919.314,1224.12 1142.91,164.97 1366.51,786.741 1590.1,261.791 1813.7,747.272 2037.29,1221.75 2260.89,1214.26 
  
  "/>
<polygon clip-path="url(#clip8501)" points="
1878.14,390.944 2249.26,390.944 2249.26,209.504 1878.14,209.504 
  " fill="#ffffff" fill-rule="evenodd" fill-opacity="1"/>
<polyline clip-path="url(#clip8501)" style="stroke:#000000; stroke-width:4; stroke-opacity:1; fill:none" points="
  1878.14,390.944 2249.26,390.944 2249.26,209.504 1878.14,209.504 1878.14,390.944 
  "/>
<polyline clip-path="url(#clip8501)" style="stroke:#009af9; stroke-width:12; stroke-opacity:1; fill:none" points="
  1902.14,269.984 2046.14,269.984 
  "/>
<g clip-path="url(#clip8501)">
<text style="fill:#000000; fill-opacity:1; font-family:Arial,Helvetica Neue,Helvetica,sans-serif; font-size:48px; text-anchor:start;" transform="rotate(0, 2070.14, 287.484)" x="2070.14" y="287.484">Line 1</text>
</g>
<polyline clip-path="url(#clip8501)" style="stroke:#e26f46; stroke-width:12; stroke-opacity:1; fill:none" points="
  1902.14,330.464 2046.14,330.464 
  "/>
<g clip-path="url(#clip8501)">
<text style="fill:#000000; fill-opacity:1; font-family:Arial,Helvetica Neue,Helvetica,sans-serif; font-size:48px; text-anchor:start;" transform="rotate(0, 2070.14, 347.964)" x="2070.14" y="347.964">Line 2</text>
</g>
</svg>
